<?xml version="1.0" encoding="utf-8"?>
<!-- Generator: Adobe Illustrator 26.3.1, SVG Export Plug-In . SVG Version: 6.00 Build 0)  -->
<svg version="1.1" id="Layer_1" xmlns="http://www.w3.org/2000/svg" xmlns:xlink="http://www.w3.org/1999/xlink" x="0px" y="0px"
	 viewBox="0 0 512 512" style="enable-background:new 0 0 512 512;" xml:space="preserve">
<style type="text/css">
	.st0{fill:#FFFFFF;}
</style>
<g>
	<path class="st0" d="M195.1,240.1v-0.2c-19.1,0-34.6,15.8-34.6,35.3s15.4,35.3,34.6,35.3s34.6-15.8,34.6-35.1
		C229.6,255.9,214,240.1,195.1,240.1L195.1,240.1z"/>
	<path class="st0" d="M256,6C117.9,6,6,117.9,6,256s111.9,250,250,250s250-111.9,250-250S394.1,6,256,6z M348.5,387.9
		c0,0-12.6-14-21.7-26.4c43.6-12.4,60.1-37.1,60.1-37.1c-45.4,28.1-87.8,38.9-130.9,37.4c-43.2,1.4-85.6-9.4-130.9-37.4
		c0,0,16.4,24.7,60.1,37.1c-9.1,12.4-21.7,26.4-21.7,26.4c-74.9-1.6-103.9-47.5-105.6-45.5c0-102,49.5-185.1,49.5-185.1
		c44.3-31.8,85.6-33.1,93.5-33.3l5,4.8c-56.6,15.8-83.9,40.5-83.9,40.5c48.6-23.5,94.3-31.7,134-32.2c39.6,0.5,85.4,8.7,134,32.2
		c0,0-27.4-24.7-83.9-40.5l5-4.8c7.9,0.2,49.2,1.5,93.5,33.3c0,0,49.5,83.1,49.5,185.1C452.4,340.5,423.4,386.3,348.5,387.9z"/>
	<path class="st0" d="M316.9,239.9v0.2c-19,0-34.6,15.8-34.6,35.3c0,19.3,15.4,35.1,34.6,35.1s34.6-15.8,34.6-35.3
		S336.1,239.9,316.9,239.9L316.9,239.9z"/>
</g>
</svg>
