<?xml version="1.0" encoding="utf-8"?>
<!-- Generator: Adobe Illustrator 26.3.1, SVG Export Plug-In . SVG Version: 6.00 Build 0)  -->
<svg version="1.1" id="Слой_1" xmlns="http://www.w3.org/2000/svg" xmlns:xlink="http://www.w3.org/1999/xlink" x="0px" y="0px"
	 viewBox="0 0 600 600" style="enable-background:new 0 0 600 600;" xml:space="preserve">
<style type="text/css">
	.st0{fill:#FFFFFF;}
</style>
<path class="st0" d="M299.8,50.1c-138.1,0-250,111.9-250,250s111.9,250,250,250s250-111.9,250-250S437.9,50.1,299.8,50.1z
	 M422.6,221.4l-41,193.4c-3,13.7-11.2,17-22.6,10.6l-62.5-46.1l-30.1,29c-3.3,3.3-6.1,6.1-12.6,6.1l4.4-63.6L374,246.2
	c5-4.4-1.1-7-7.8-2.5L223,333.8l-61.7-19.3c-13.4-4.2-13.7-13.4,2.8-19.9l241-93C416.4,197.7,426.2,204.4,422.6,221.4L422.6,221.4z"
	/>
</svg>
