<?xml version="1.0" encoding="utf-8"?>
<!-- Generator: Adobe Illustrator 26.3.1, SVG Export Plug-In . SVG Version: 6.00 Build 0)  -->
<svg version="1.1" id="Слой_1" xmlns="http://www.w3.org/2000/svg" xmlns:xlink="http://www.w3.org/1999/xlink" x="0px" y="0px"
	 viewBox="0 0 550 550" style="enable-background:new 0 0 550 550;" xml:space="preserve">
<style type="text/css">
	.st0{fill:#FFFFFF;}
</style>
<g>
	<g>
		<path class="st0" d="M275.5,24.9c-137.8,0-250,112.2-250,250c0,137.8,112.2,250,250,250c137.8,0,250-112.2,250-250
			C525.5,137.1,413.4,24.9,275.5,24.9z M387,217.7c0.1,2.5,0.2,5,0.2,7.5c0,76-57.9,163.7-163.7,163.7c-32.5,0-62.7-9.5-88.2-25.8
			c4.5,0.5,9.1,0.8,13.7,0.8c27,0,51.8-9.2,71.5-24.6c-25.2-0.5-46.4-17.1-53.8-40c3.5,0.7,7.1,1,10.8,1c5.2,0,10.3-0.7,15.2-2
			c-26.3-5.3-46.2-28.5-46.2-56.4c0-0.2,0-0.5,0-0.7c7.8,4.3,16.6,6.9,26.1,7.2C157.2,238,147,220.4,147,200.4
			c0-10.6,2.8-20.4,7.8-28.9c28.4,34.8,70.8,57.7,118.6,60.1c-1-4.2-1.5-8.6-1.5-13.1c0-31.8,25.8-57.5,57.5-57.5
			c16.6,0,31.5,7,42,18.2c13.1-2.6,25.4-7.4,36.6-14c-4.3,13.4-13.4,24.7-25.3,31.8c11.7-1.4,22.8-4.5,33.1-9.1
			C408,199.5,398.3,209.6,387,217.7z"/>
	</g>
</g>
</svg>
