<?xml version="1.0" encoding="utf-8"?>
<!-- Generator: Adobe Illustrator 26.3.1, SVG Export Plug-In . SVG Version: 6.00 Build 0)  -->
<svg version="1.1" id="Слой_1" xmlns="http://www.w3.org/2000/svg" xmlns:xlink="http://www.w3.org/1999/xlink" x="0px" y="0px"
	 viewBox="0 0 1000 1000" style="enable-background:new 0 0 1000 1000;" xml:space="preserve">
<style type="text/css">
	.st0{fill:#FFFFFF;}
</style>
<g>
	<path class="st0" d="M927.15,271.11L800.82,144.78c-0.02-0.02-0.04-0.04-0.06-0.06c-14.88-14.88-38.98-14.91-53.9-0.08c0,0,0,0,0,0
		c-0.01,0.01-0.02,0.02-0.04,0.04c-0.02,0.01-0.03,0.03-0.05,0.04L519.19,372.3c-108.22-81.84-263.37-73.52-361.98,25.08
		c-107.76,107.77-107.76,283.11,0,390.87c52.21,52.2,121.61,80.95,195.44,80.95s143.23-28.75,195.43-80.95
		c14.91-14.91,14.91-39.08,0-53.98c-14.91-14.9-39.07-14.9-53.98,0c-37.78,37.78-88.02,58.6-141.45,58.6
		c-53.44,0-103.67-20.81-141.46-58.6c-78-78-78-204.91,0-282.91c68.77-68.76,175.54-76.86,253.3-24.38L325.66,565.83
		c-7.45,7.46-11.18,17.22-11.18,26.99c0,9.77,3.73,19.54,11.18,26.99c7.46,7.45,17.22,11.18,26.99,11.18s19.54-3.73,26.99-11.18
		l246.94-246.95l76.15,76.15c7.46,7.45,17.22,11.18,26.99,11.18c9.77,0,19.54-3.73,26.99-11.18c14.91-14.91,14.91-39.08,0-53.98
		l-76.15-76.15l93.19-93.2l99.41,99.41c14.91,14.9,39.07,14.91,53.98,0C942.06,310.19,942.06,286.02,927.15,271.11z"/>
</g>
</svg>
