<?xml version="1.0" encoding="utf-8"?>
<!-- Generator: Adobe Illustrator 25.4.1, SVG Export Plug-In . SVG Version: 6.00 Build 0)  -->
<svg version="1.1" id="Слой_1" xmlns="http://www.w3.org/2000/svg" xmlns:xlink="http://www.w3.org/1999/xlink" x="0px" y="0px"
	 viewBox="0 0 700 700" style="enable-background:new 0 0 700 700;" xml:space="preserve">
<style type="text/css">
	.st0{fill:#FFFFFF;}
</style>
<path class="st0" d="M612.5,656.1c23.2,0,45.5-9.2,61.9-25.6c16.4-16.4,25.6-38.7,25.6-61.9v-250c0-27.8-11.1-54.6-30.8-74.2
	c-19.7-19.7-46.4-30.8-74.2-30.8H119.8c-12.9,0-25.3-5-34.6-13.9c-9.3-8.9-14.7-21.1-15.2-34c0.5-13.8,6.2-26.8,16-36.4
	c9.8-9.6,23-15.1,36.7-15.4H595c9.3,0,18.2,3.7,24.8,10.2c6.6,6.6,10.2,15.5,10.2,24.7v11.8c0,12.5,6.7,24.1,17.5,30.3
	c10.8,6.3,24.2,6.3,35,0c10.8-6.3,17.5-17.8,17.5-30.3v-11.8c0-27.8-11.1-54.6-30.8-74.2c-19.7-19.7-46.4-30.8-74.2-30.8H119.8
	C88,43.9,57.6,56.6,35.1,79S0.1,131.9,0,163.6v352.5c0,37.1,14.8,72.7,41,99c26.3,26.3,61.9,41,99,41L612.5,656.1z M630,457.7
	l-120.9,0c-9.6-0.1-17.4-7.9-17.5-17.5v-20.5c0-9.7,7.8-17.5,17.5-17.5h121.1L630,457.7z M70,516.1V272.7
	c15.6,7.2,32.6,11,49.8,10.9H595c9.3,0,18.2,3.7,24.8,10.2c6.6,6.6,10.2,15.5,10.2,24.7V332H509.1c-23.2,0.1-45.5,9.3-61.9,25.8
	c-16.4,16.4-25.6,38.7-25.6,61.9v21.1c0.2,23.1,9.6,45.1,25.9,61.4c16.4,16.2,38.5,25.4,61.6,25.5h121.1v40.9l0,0
	c0,9.7-7.8,17.5-17.5,17.5H140c-18.6,0-36.4-7.4-49.5-20.5C77.4,552.5,70,534.7,70,516.1L70,516.1z"/>
</svg>
